<svg xmlns="http://www.w3.org/2000/svg" fill="none" viewBox="0 0 135 28" class="design-iconfont">
  <path fill-rule="evenodd" clip-rule="evenodd" d="M0 14C0 6.26814 6.30781 0 14.0897 0C21.8717 0 28.1795 6.26814 28.1795 14C28.1795 21.7319 21.8717 28 14.0897 28C6.30781 28 0 21.7319 0 14Z" fill="#fff"/>
  <path fill-rule="evenodd" clip-rule="evenodd" d="M16.7515 13.3097C18.815 13.3097 20.41 11.6692 20.41 9.66444C20.41 7.65532 18.767 6.03207 16.7385 6.01698C15.0694 6.00621 13.7577 6.01914 11.5265 6.01914C11.2323 6.01914 10.9795 6.21962 10.9142 6.50202L10.6004 7.87736C10.5895 7.9291 10.6244 7.97868 10.6767 7.98514L14.3482 8.46802L15.3178 8.59736C16.2635 8.72239 16.9215 9.38851 16.8997 10.2961C16.8823 11.0527 16.3615 11.7037 15.6141 11.874C14.529 12.1198 13.5572 11.32 13.5398 10.2831C13.5354 9.95546 13.6269 9.64719 13.7882 9.38635L10.4414 8.94659C10.3956 8.94012 10.352 8.9703 10.3411 9.01557L9.0817 14.5385C9.0708 14.5902 9.10567 14.6398 9.15796 14.6463L14.2893 15.3189L14.8428 15.3921C15.9453 15.5409 16.8191 16.345 16.7864 17.4573C16.7581 18.408 16.0456 19.2207 15.0955 19.3737C13.847 19.5742 12.7554 18.6343 12.7336 17.4293C12.7249 16.9529 12.8861 16.5131 13.1607 16.1639L8.92264 15.612C8.87688 15.6056 8.8333 15.6357 8.82241 15.681L7.83317 20.0248C7.60438 21.0228 8.36919 21.9821 9.40418 21.9865C10.4915 21.9886 14.5508 21.9843 16.7058 21.9843C19.1287 21.9843 21.0745 20.0442 21.0745 17.647C21.0745 15.2606 19.1658 13.3097 16.7515 13.3097Z" fill="#121212"/>
  <path fill-rule="evenodd" clip-rule="evenodd" d="M107.062 17.2087V17.213C107.056 17.2437 107.051 17.2742 107.046 17.3042C107.037 17.3584 107.028 17.411 107.018 17.461C107.003 17.5451 106.994 17.6249 106.994 17.7025C106.994 18.2933 107.295 18.606 107.865 18.606C108.033 18.606 108.225 18.5758 108.435 18.5154C108.592 18.4723 108.745 18.4141 108.893 18.3451L108.258 21.2777C107.754 21.4998 107.566 21.5817 107.099 21.7025C106.44 21.875 105.813 21.8965 105.339 21.8965C104.458 21.8965 103.776 21.7025 103.318 21.3186C102.864 20.9391 102.633 20.3785 102.633 19.654C102.633 19.4987 102.639 19.3413 102.654 19.1839C102.667 19.0308 102.696 18.8691 102.74 18.6944L105.425 6.44437C105.479 6.19208 105.708 6.01095 105.968 6.01095L109.478 6.00879L107.062 17.2087ZM40.1446 12.3132C41.0471 12.3132 41.6953 11.5516 41.8224 10.8734C41.9008 10.4477 41.8161 10.0519 41.5809 9.75886C41.3627 9.48718 41.0428 9.28394 40.6403 9.28394L38.0472 9.27325L37.418 12.311L40.1446 12.3132ZM39.0829 18.7589C40.0892 18.7589 40.8052 17.9203 40.9451 17.1673C41.0319 16.6966 40.9387 16.2623 40.6802 15.9415C40.443 15.6462 40.0892 15.4195 39.6676 15.4195L36.7355 15.413L36.0427 18.7525L39.0829 18.7589ZM40.7371 6.06004C43.8874 6.08357 45.6691 7.70301 45.6691 9.72249C45.6691 11.7184 44.1564 13.2694 42.5294 13.6823L42.5315 13.6844C44.7941 13.9839 45.7856 16.1061 45.4085 17.9437C44.7729 21.0372 42.1035 21.818 38.6948 21.9271C38.6778 21.9292 38.6609 21.9292 38.6461 21.9292H38.646C38.5878 21.9306 38.5294 21.9323 38.4708 21.9339L38.4706 21.9339H38.4706H38.4706H38.4705H38.4705H38.4705C38.3501 21.9373 38.229 21.9406 38.1079 21.9421V21.9399H31.9959C31.8603 21.9399 31.7353 21.8779 31.6485 21.7731C31.5637 21.6661 31.5319 21.5292 31.5595 21.3966L34.7161 6.50287C34.7712 6.24615 35 6.0579 35.2627 6.0579H40.7349L40.7371 6.06004ZM95.9957 18.4984C97.1379 18.4138 98.2212 17.2292 98.4094 15.8559C98.5144 15.0987 98.3306 14.4088 97.906 13.964C97.5822 13.6212 97.1336 13.4476 96.65 13.4867C95.5077 13.5713 94.4244 14.7559 94.2363 16.1292C94.1334 16.8864 94.315 17.5763 94.7396 18.0233C95.035 18.3357 95.4333 18.5027 95.8687 18.5027C95.9083 18.5027 95.9479 18.5008 95.9894 18.4987L95.9957 18.4984ZM98.7316 10.2714C99.5326 10.2714 100.233 10.4645 100.811 10.8485C101.39 11.2303 101.843 11.7619 102.159 12.4258C102.474 13.0918 102.633 13.8707 102.633 14.7407C102.633 15.6844 102.465 16.5957 102.134 17.4483C101.8 18.3009 101.347 19.0668 100.782 19.7198C100.222 20.375 99.5676 20.8957 98.8389 21.2689C98.1124 21.6399 97.3508 21.8287 96.574 21.8287C95.8168 21.8287 95.18 21.6703 94.6811 21.3579C94.1887 21.0476 93.8583 20.592 93.7029 19.9997L93.6198 19.6786L92.1842 26.1591H88.1665L91.5037 10.8919C91.5584 10.6337 91.7947 10.4449 92.0617 10.4449H95.0684L94.6461 12.4019L94.854 12.1524C95.3595 11.5471 95.935 11.0785 96.5674 10.7552C97.1976 10.4341 97.9263 10.2714 98.7316 10.2714ZM118.156 15.8263C117.969 17.1924 116.89 18.3707 115.752 18.4549L115.746 18.4552C115.704 18.4572 115.665 18.4592 115.625 18.4592C115.192 18.4592 114.795 18.293 114.501 17.9822C114.078 17.5377 113.895 16.8514 113.999 16.0983C114.187 14.7322 115.266 13.5539 116.404 13.4697C116.888 13.4331 117.332 13.6035 117.655 13.9445C118.078 14.3869 118.261 15.0732 118.156 15.8263ZM122.029 18.0729C121.822 18.129 121.695 18.0772 121.621 18.0189C121.462 17.8873 121.425 17.6132 121.517 17.201L122.912 10.9448H119.668L119.402 12.2547L119.295 12.1188C118.929 11.6569 118.271 11.0289 117.686 10.7398C117.096 10.4463 116.372 10.2715 115.753 10.2715C114.935 10.2715 114.153 10.4592 113.422 10.8282C112.688 11.1994 112.025 11.713 111.45 12.3583C110.874 13.0014 110.418 13.7567 110.094 14.6048C109.771 15.453 109.607 16.368 109.607 17.3197C109.607 18.1872 109.771 18.9663 110.091 19.6353C110.414 20.3021 110.876 20.8287 111.467 21.2021C112.058 21.5776 112.777 21.7675 113.606 21.7675C114.305 21.7675 115.005 21.6099 115.687 21.3035C116.459 20.956 117.139 20.4338 117.601 19.8338L117.743 19.6482C117.743 19.6482 117.545 20.5999 118.146 21.174C118.521 21.5279 119.223 21.5624 119.666 21.5495C120.425 21.5301 121.126 21.2215 121.371 21.0316L122.029 18.0729ZM52.12 18.5368C53.2709 18.4527 54.3628 17.2614 54.5528 15.8824C54.6576 15.1228 54.472 14.43 54.0462 13.9812C53.7186 13.638 53.2687 13.4654 52.7817 13.5042C51.6308 13.5884 50.5389 14.7796 50.3489 16.1586C50.2441 16.9183 50.4297 17.611 50.8556 18.0577C51.1548 18.3728 51.5544 18.5411 51.9934 18.5411C52.0348 18.5411 52.0785 18.539 52.12 18.5368ZM53.5469 10.2714C54.7568 10.2714 55.7417 10.485 56.4733 10.9015C57.2005 11.318 57.7399 11.8856 58.0762 12.5848C58.4125 13.2905 58.585 14.0868 58.585 14.9522C58.585 15.8349 58.4169 16.6938 58.0849 17.5052C57.753 18.3188 57.2725 19.0525 56.6523 19.6892C56.0343 20.3258 55.27 20.8372 54.3833 21.2084C53.4967 21.5796 52.4768 21.7674 51.3521 21.7674C50.1554 21.7674 49.177 21.5516 48.4389 21.1286C47.7008 20.7034 47.1592 20.1294 46.8229 19.4237C46.4865 18.7115 46.314 17.9174 46.314 17.0649C46.314 16.1823 46.4822 15.3234 46.8141 14.512C47.1461 13.7005 47.6265 12.9668 48.2467 12.328C48.8648 11.6935 49.6291 11.1864 50.5157 10.8217C51.4002 10.457 52.4222 10.2714 53.5469 10.2714ZM66.8301 15.9536C66.6401 17.3326 65.548 18.5238 64.3969 18.608C64.3554 18.6102 64.3117 18.6123 64.2702 18.6123C63.8312 18.6123 63.4315 18.444 63.1322 18.1289C62.7063 17.68 62.5206 16.9873 62.6255 16.2298C62.8155 14.8508 63.9076 13.6596 65.0587 13.5754C65.5458 13.5366 65.9958 13.7092 66.3234 14.0523C66.7493 14.5012 66.935 15.1939 66.8301 15.9536ZM70.3492 12.5848C70.015 11.8834 69.4733 11.318 68.746 10.9015C68.0143 10.4829 67.0314 10.2714 65.8213 10.2714C64.6942 10.2714 63.6742 10.457 62.7874 10.8195C61.9006 11.1842 61.1383 11.6914 60.518 12.328C59.8998 12.9646 59.4171 13.7005 59.0851 14.512C58.7553 15.3234 58.5871 16.1823 58.5871 17.0649C58.5871 17.9174 58.7575 18.7094 59.0939 19.4216C59.4302 20.1294 59.9741 20.7034 60.7102 21.1264C61.4485 21.5516 62.4292 21.7674 63.624 21.7674C64.751 21.7674 65.7711 21.5796 66.6557 21.2084C67.5425 20.8372 68.3069 20.3258 68.9251 19.6892C69.5454 19.0525 70.0281 18.3166 70.3579 17.5052C70.6899 16.6938 70.8581 15.8349 70.8581 14.9522C70.8581 14.0868 70.6878 13.2905 70.3492 12.5848ZM127.828 17.1232C129.468 13.9939 130.859 10.7091 131.041 10.2714H134.794C134.216 11.3941 129.651 20.2548 127.561 23.2792C125.322 26.5223 121.338 26.1875 120.715 26.1131L121.358 23.0822C122.628 23.2106 123.524 22.7025 123.829 22.5291L123.834 22.5264C124.193 22.3228 124.726 21.7604 124.958 21.4519L124.978 21.4234L123.492 10.2714H127.202L127.701 17.3662L127.828 17.1232ZM89.6839 13.226C89.7057 12.9732 89.7166 12.7825 89.7166 12.6582C89.7166 12.2447 89.649 11.8505 89.5115 11.4841C89.3784 11.1263 89.1319 10.8328 88.7741 10.61C88.3508 10.3443 87.692 10.235 86.8215 10.2821C86.5946 10.2929 86.372 10.3229 86.1604 10.3657C85.4426 10.5157 84.7772 10.7792 84.1816 11.152C83.7344 11.4284 83.3329 11.7734 82.9882 12.1783L82.8639 12.3219L82.8486 12.1333C82.818 11.8055 82.7264 11.4927 82.5693 11.2077C82.4166 10.9249 82.1613 10.6978 81.8123 10.5285C81.4588 10.3571 80.9527 10.2714 80.3069 10.2714C79.4844 10.2714 78.6837 10.43 77.9267 10.7428C77.1718 11.0556 76.5325 11.5163 76.0308 12.1119L75.8213 12.3604L76.2446 10.4428L73.0942 10.4407H73.0898C72.8302 10.4407 72.6033 10.6228 72.5466 10.8713L70.2121 21.5091L74.2505 21.507L75.6293 15.2293C75.8562 14.3658 76.598 13.6931 77.342 13.6867H77.3529C77.6758 13.6867 77.9659 13.8173 78.1688 14.0573C78.4154 14.3487 78.5157 14.7729 78.4481 15.2293H78.4524L78.4284 15.345L77.0758 21.5091H81.0727L82.4537 15.2293C82.6784 14.3658 83.4202 13.6931 84.1663 13.6867H84.1751C84.5001 13.6867 84.7903 13.8173 84.991 14.0573C85.2397 14.3487 85.3401 14.7729 85.2703 15.2293H85.2746L85.2506 15.345L83.9002 21.5091H87.9036L89.5202 14.2159C89.6075 13.8088 89.6621 13.4767 89.6839 13.226Z" fill="#fff"/>
</svg>
